:SAMPLES-PER-SECOND 30
:FULLY-SPECIFIED
:DEGREES
354
root  34.82234384 36.57604728 -14.21854815 9.437208176 -3.854338646 3.151761055
lowerback  -8.474949837 -0.3463110328 -0.1925500929
upperback  -3.972369909 0.02304009907 -3.281110048
thorax  0.6408619881 0.1675830036 -3.278539896
lowerneck  -14.92490005 -4.16245985 -2.939709902
upperneck  17.03450012 -6.130010128 7.206319809
head  8.054945946 -2.23893714 2.205008984
lclavicle  0 -4.497500157e-015 -2.743230041e-014
lhumerus  -47.45000076 30.19420052 63.22399902
lradius  -1.808929142e-006 -6.507048965e-006 30.04579735
lwrist  3.192251654e-007 -3.790274832e-007 -27.4083004
lhand  -4.406080806e-031 -36.73400116 -10.58899975
lfingers  90 7.125020027 -90
lthumb  94.72028577 -25.43225381 100.883741
rclavicle  0 -4.497500157e-015 -2.743230041e-014
rhumerus  -49.77619934 -29.32500076 -54.0931015
rradius  -5.16745672e-007 2.214343908e-008 66.19059753
rwrist  0.0006954420824 -0.004670973402 -167.0240021
rhand  -1.775553628e-031 6.081089973 -7.860410213
rfingers  -90 -7.125020027 -90
rthumb  -84.84939828 -8.366504247 -58.22242412
rfemur  -10.63305855 15.03874588 12.92158127
rtibia  0.1649801433 -0.8680630922 17.93456078
rfoot  1.352572322 -21.68512344 -35.74720001
rtoes  4.163214133 19.57927093 -102.2549429
lfemur  -4.297109127 -15.74939442 -21.76689529
ltibia  5.953398705 0.09479629993 8.603720665
lfoot  0.2456525266 -22.7435379 35.58560944
ltoes  -8.548475129 -18.14904236 -115.760618
355
root  34.82205849 36.5763086 -14.21843551 9.439115524 -3.878824472 3.152470112
lowerback  -8.554639816 -0.3621180654 -0.2353230268
upperback  -3.93411994 0.003140419954 -3.239010096
thorax  0.7235040069 0.1574140042 -3.212579966
lowerneck  -14.93959999 -4.153570175 -2.962419987
upperneck  17.0156002 -6.112180233 7.198840141
head  8.056509972 -2.235039949 2.203229904
lclavicle  0 -4.497500157e-015 -2.743230041e-014
lhumerus  -47.35509872 30.25160027 63.29550171
lradius  -1.808929142e-006 -6.507048965e-006 30.02659988
lwrist  3.192251654e-007 -3.790274832e-007 -27.37989998
lhand  -4.400035981e-031 -36.6283989 -10.61310005
lfingers  90 7.125020027 -90
lthumb  94.67599732 -25.45955359 100.7730424
rclavicle  0 -4.497500157e-015 -2.743230041e-014
rhumerus  -49.52159882 -29.82150078 -53.99919891
rradius  -5.16745672e-007 2.214343908e-008 64.45739746
rwrist  0.0006954420824 -0.004670973402 -165.9129944
rhand  -3.551891477e-031 6.198699951 -7.79820013
rfingers  -90 -7.125020027 -90
rthumb  -84.78808928 -8.427836131 -58.10312477
rfemur  -10.65398788 15.03111649 12.91848087
rtibia  0.1537329257 -0.8716136813 17.96077538
rfoot  1.329236627 -21.70158577 -35.75479126
rtoes  4.169280037 19.57802858 -102.2730446
lfemur  -4.261707783 -15.74172974 -21.78613281
ltibia  5.982604027 0.09484814107 8.539468765
lfoot  0.2337736785 -22.71480179 35.58809662
ltoes  -8.573231816 -18.13766936 -115.8401204
356
root  34.82066177 36.57719169 -14.21775668 9.453902245 -3.893676043 3.154562235
lowerback  -8.576029778 -0.3654890358 -0.2382714152
upperback  -3.9214499 -0.001706440002 -3.231950045
thorax  0.7481510043 0.1576809436 -3.204070091
lowerneck  -14.94379997 -4.140890121 -2.92098999
upperneck  17.02129936 -6.097259998 7.15994978
head  8.064165115 -2.22908473 2.195928097
lclavicle  0 -4.497500157e-015 -2.743230041e-014
lhumerus  -47.30160141 30.29560089 63.30780029
lradius  -1.808929142e-006 -6.507048965e-006 30.02482033
lwrist  3.192251654e-007 -3.790274832e-007 -27.41209984
lhand  -4.397652127e-031 -36.58660126 -10.59589958
lfingers  90 7.125020027 -90
lthumb  94.65293007 -25.44406661 100.726852
rclavicle  0 -4.497500157e-015 -2.743230041e-014
rhumerus  -49.38899994 -30.44630051 -53.79069901
rradius  -5.16745672e-007 2.214343908e-008 62.5788002
rwrist  0.0006954420824 -0.004670973402 -165.352005
rhand  -1.776553207e-031 6.376540184 -7.858860016
rfingers  -90 -7.125020027 -90
rthumb  -84.7778229 -8.389190681 -57.93473941
rfemur  -10.69508457 15.07580471 12.93448257
rtibia  0.1360834688 -0.8286716938 18.00543594
rfoot  1.323739171 -21.61762619 -35.7602272
rtoes  4.184743946 19.57485283 -102.3191967
lfemur  -4.206251144 -15.71525669 -21.81223297
ltibia  6.043157101 0.1037851423 8.430253983
lfoot  0.2348984331 -22.68766022 35.58981705
ltoes  -8.557291255 -18.14499701 -115.7889242
357
root  34.81967656 36.57218453 -14.21729711 9.434342384 -3.910944223 3.153053284
lowerback  -8.601711273 -0.3563300967 -0.2124347985
upperback  -3.942670107 0.01106309984 -3.236711025
thorax  0.7409160137 0.1623856872 -3.220350027
lowerneck  -14.94149971 -4.144504547 -2.913340092
upperneck  17.07130051 -6.102896214 7.140329838
head  8.077069283 -2.225885391 2.184249401
lclavicle  0 -4.497500157e-015 -2.743230041e-014
lhumerus  -47.29050064 30.25989914 63.31919861
lradius  -1.808929142e-006 -6.507048965e-006 30.04070091
lwrist  3.192251654e-007 -3.790274832e-007 -27.4477005
lhand  -4.399254164e-031 -36.61470032 -10.65569973
lfingers  90 7.125020027 -90
lthumb  94.6784149 -25.50189111 100.7621968
rclavicle  0 -4.497500157e-015 -2.743230041e-014
rhumerus  -49.30089951 -30.90880013 -53.6094017
rradius  -5.16745672e-007 2.214343908e-008 60.76050186
rwrist  0.0006954420824 -0.004670973402 -164.6399994
rhand  -1.776321329e-031 6.309259892 -7.90583992
rfingers  -90 -7.125020027 -90
rthumb  -84.81914561 -8.344468576 -58.00380957
rfemur  -10.65736485 15.11695576 12.92947006
rtibia  0.1434317082 -0.8319471478 17.96709824
rfoot  1.347025752 -21.60510254 -35.75613022
rtoes  4.217541363 19.56807648 -102.4171046
lfemur  -4.235954762 -15.66775227 -21.79665184
ltibia  6.004955292 0.1109976992 8.515996933
lfoot  0.2618617713 -22.75363159 35.59118271
ltoes  -8.581555349 -18.13383639 -115.866861
358
root  34.81827383 36.56554635 -14.21689762 9.438155174 -3.924869776 3.144057989
lowerback  -8.616740227 -0.3502850533 -0.2055574208
upperback  -3.95085001 0.0203149002 -3.242189884
thorax  0.741189003 0.1668470055 -3.231430054
lowerneck  -14.94900036 -4.148729801 -2.897530079
upperneck  17.12339973 -6.109130383 7.127600193
head  8.090878487 -2.225082636 2.171655178
lclavicle  0 -4.497500157e-015 -2.743230041e-014
lhumerus  -47.26959991 30.26840019 63.31169891
lradius  -1.808929142e-006 -6.507048965e-006 30.02120209
lwrist  3.192251654e-007 -3.790274832e-007 -27.54129982
lhand  -4.39876936e-031 -36.60620117 -10.60330009
lfingers  90 7.125020027 -90
lthumb  94.66363655 -25.45078295 100.7484803
rclavicle  0 -4.497500157e-015 -2.743230041e-014
rhumerus  -49.12269974 -31.45159912 -53.44100189
rradius  -5.16745672e-007 2.214343908e-008 58.85990143
rwrist  0.0006954420824 -0.004670973402 -163.3540039
rhand  -1.775536501e-031 6.075900078 -7.871679783
rfingers  -90 -7.125020027 -90
rthumb  -84.85662334 -8.356581866 -58.22840273
rfemur  -10.68338966 15.12240791 12.93388176
rtibia  0.1341678202 -0.8513464332 17.97451401
rfoot  1.350509644 -21.63737869 -35.73601913
rtoes  4.227714628 19.56596324 -102.4474808
lfemur  -4.302869797 -15.64503479 -21.75709915
ltibia  5.952510357 0.1230893582 8.629770279
lfoot  0.2844772041 -22.83210754 35.59236908
ltoes  -8.530901533 -18.15709065 -115.7042122
359
root  34.81740276 36.56581668 -14.21653117 9.433238029 -3.935344219 3.142181396
lowerback  -8.640620232 -0.3489279449 -0.2058277875
upperback  -3.954890013 0.02317119949 -3.237999916
thorax  0.7503190041 0.1692611277 -3.235482454
lowerneck  -14.95189953 -4.1384902 -2.886889935
upperneck  17.15019989 -6.096600056 7.121860027
head  8.096055031 -2.225405216 2.165792465
lclavicle  0 -4.497500157e-015 -2.743230041e-014
lhumerus  -47.23286057 30.26106453 63.34220123
lradius  -1.808929142e-006 -6.507048965e-006 30.00370026
lwrist  3.192251654e-007 -3.790274832e-007 -27.55260086
lhand  -4.396615664e-031 -36.56840134 -10.56700039
lfingers  90 7.125020027 -90
lthumb  94.63848033 -25.41641062 100.7047771
rclavicle  0 -4.497500157e-015 -2.743230041e-014
rhumerus  -48.94810104 -32.10699844 -53.18519974
rradius  -5.16745672e-007 2.214343908e-008 56.85269928
rwrist  0.0006954420824 -0.004670973402 -162.0410004
rhand  -1.775743943e-031 6.138460159 -7.820580006
rfingers  -90 -7.125020027 -90
rthumb  -84.81446432 -8.404492521 -58.16343541
rfemur  -10.66279507 15.13618469 12.93223476
rtibia  0.1374842972 -0.8659787774 17.94877625
rfoot  1.34500289 -21.66625214 -35.76464462
rtoes  4.227572994 19.5659927 -102.4470579
lfemur  -4.280138016 -15.69190502 -21.7720623
ltibia  5.959238052 0.09512917697 8.620426178
lfoot  0.2674770951 -22.76896477 35.59356308
ltoes  -8.541635032 -18.15217741 -115.7386606
